<svg width="347" height="95" viewBox="0 0 347 95" fill="none" xmlns="http://www.w3.org/2000/svg">
<path d="M174.513 40.834L182.37 40.672C184.314 40.672 185.286 40.807 185.286 41.077C185.286 41.779 181.344 42.4 173.46 42.94C168.438 52.768 165.927 59.464 165.927 63.028C165.927 65.512 166.71 66.754 168.276 66.754C168.87 66.754 169.599 66.376 170.463 65.62C171.381 64.918 171.921 64.567 172.083 64.567C172.299 64.567 172.407 64.702 172.407 64.972C172.137 65.944 171.3 66.754 169.896 67.402C168.546 68.05 167.385 68.374 166.413 68.374C165.495 68.374 164.766 68.32 164.226 68.212C162.93 67.726 162.282 66.16 162.282 63.514C162.282 58.06 164.361 51.121 168.519 42.697L158.799 42.94C151.563 50.014 144.3 56.224 137.01 61.57C126.102 69.508 117.57 73.477 111.414 73.477C111.036 73.477 110.658 73.45 110.28 73.396C101.964 72.694 97.8062 68.428 97.8062 60.598C97.8062 55.954 99.2642 51.04 102.18 45.856C106.068 38.944 111.387 33.058 118.137 28.198C124.887 23.284 130.935 20.827 136.281 20.827C141.627 20.827 144.3 22.798 144.3 26.74C144.3 29.386 143.49 32.329 141.87 35.569C140.25 38.809 138.603 40.861 136.929 41.725C136.767 41.779 136.578 41.806 136.362 41.806C136.2 41.806 136.119 41.752 136.119 41.644L138.792 37.27C140.628 34.408 141.546 31.897 141.546 29.737C141.546 27.577 141.06 25.849 140.088 24.553C139.17 23.203 137.685 22.528 135.633 22.528C131.421 22.528 126.372 24.877 120.486 29.575C114.654 34.273 110.199 40.051 107.121 46.909C104.097 53.767 102.585 59.113 102.585 62.947C102.585 68.725 105.528 71.614 111.414 71.614C117.03 71.614 124.644 67.996 134.256 60.76C138.522 57.574 145.461 51.553 155.073 42.697C153.183 42.805 151.428 42.994 149.808 43.264C146.352 43.912 144.732 43.804 144.948 42.94C145.164 40.942 146.19 39.943 148.026 39.943C151.59 40.375 154.587 40.591 157.017 40.591C161.661 36.325 168.6 29.332 177.834 19.612C184.044 13.078 187.824 9.811 189.174 9.811C189.768 9.811 190.065 10.27 190.065 11.188C190.065 12.106 189.822 13.537 189.336 15.481C188.85 17.425 188.31 18.613 187.716 19.045C186.474 19.909 185.313 21.097 184.233 22.609C183.153 24.067 181.614 26.848 179.616 30.952C177.618 35.002 175.917 38.296 174.513 40.834ZM180.993 21.07L160.257 40.51H165.036C166.17 40.564 167.574 40.591 169.248 40.591C170.814 37.513 174.729 31.006 180.993 21.07ZM207.523 39.295L208.657 39.052C209.359 39.052 209.899 39.268 210.277 39.7C210.709 40.132 210.925 40.483 210.925 40.753C210.925 40.969 210.898 41.239 210.844 41.563C210.79 41.833 210.007 43.183 208.495 45.613C206.605 48.907 205.039 51.688 203.797 53.956C199.423 62.11 196.075 67.699 193.753 70.723C188.785 77.311 184.06 80.605 179.578 80.605C178.012 80.605 176.662 79.93 175.528 78.58C174.34 77.284 173.719 75.826 173.665 74.206C173.827 73.558 174.07 73.234 174.394 73.234C174.556 73.234 174.691 73.423 174.799 73.801C175.069 75.205 175.582 76.285 176.338 77.041C177.094 77.797 177.85 78.175 178.606 78.175C181.684 78.175 184.978 76.15 188.488 72.1C190.81 69.4 193.375 65.458 196.183 60.274L200.233 52.255L194.158 58.411C190.27 62.137 187.597 64 186.139 64C184.735 64 183.385 63.514 182.089 62.542C180.631 61.462 179.902 60.031 179.902 58.249C179.902 54.307 182.656 49.609 188.164 44.155C193.726 38.701 198.775 35.974 203.311 35.974C205.147 35.974 206.335 36.568 206.875 37.756C207.037 38.188 207.172 38.566 207.28 38.89C207.388 39.16 207.469 39.295 207.523 39.295ZM183.304 59.221C183.304 61.165 183.979 62.137 185.329 62.137C188.461 62.137 192.727 58.708 198.127 51.85L206.713 40.024C206.389 39.268 205.714 38.89 204.688 38.89C201.34 38.89 196.939 41.482 191.485 46.666C186.031 51.796 183.304 55.981 183.304 59.221ZM214.58 65.053C213.986 65.053 213.446 64.972 212.96 64.81C209.504 63.838 207.776 61.894 207.776 58.978C207.776 55.198 210.152 50.824 214.904 45.856C219.656 40.888 223.922 38.404 227.702 38.404C228.944 38.404 229.943 38.755 230.699 39.457C231.509 40.105 231.914 40.915 231.914 41.887C231.914 44.911 229.619 47.8 225.029 50.554C220.493 53.308 216.794 54.685 213.932 54.685C213.5 54.685 213.122 54.631 212.798 54.523C211.988 55.981 211.583 57.52 211.583 59.14C211.583 61.948 212.906 63.352 215.552 63.352C218.252 63.352 221.735 61.543 226.001 57.925C229.295 55.279 232.103 52.471 234.425 49.501C234.911 48.853 235.316 48.529 235.64 48.529C236.018 48.529 236.207 48.691 236.207 49.015C236.207 49.339 235.991 49.798 235.559 50.392C232.643 54.226 229.133 57.628 225.029 60.598C220.925 63.568 217.442 65.053 214.58 65.053ZM229.889 41.725C229.889 41.077 229.187 40.753 227.783 40.753C226.433 40.753 224.489 41.806 221.951 43.912C218.549 46.72 215.903 49.663 214.013 52.741C214.337 52.849 214.688 52.903 215.066 52.903C217.118 52.903 219.845 51.823 223.247 49.663C226.703 47.449 228.863 45.046 229.727 42.454C229.835 42.184 229.889 41.941 229.889 41.725ZM244.293 38.404C245.751 38.404 246.48 38.971 246.48 40.105C246.48 40.429 246.399 40.753 246.237 41.077C241.377 47.827 238.461 52.93 237.489 56.386C250.071 43.804 257.712 37.513 260.412 37.513C260.682 37.459 260.925 37.432 261.141 37.432C262.653 37.432 263.409 38.107 263.409 39.457C263.409 39.727 263.355 39.997 263.247 40.267C263.139 40.537 262.059 41.995 260.007 44.641C257.631 47.449 255.606 50.149 253.932 52.741C252.312 55.333 251.502 57.493 251.502 59.221C251.502 60.949 251.88 61.813 252.636 61.813C255.012 61.813 259.143 58.546 265.029 52.012C265.137 51.904 265.326 51.661 265.596 51.283C266.406 50.311 266.892 49.825 267.054 49.825C267.216 49.825 267.297 50.095 267.297 50.635C267.297 51.175 266.919 51.877 266.163 52.741C259.467 60.355 254.715 64.162 251.907 64.162C249.261 64.162 247.938 62.704 247.938 59.788C247.938 56.872 249.018 53.524 251.178 49.744L256.362 41.32C252.69 44.02 249.423 46.99 246.561 50.23C243.699 53.416 241.08 56.521 238.704 59.545C236.382 62.569 235.032 64.081 234.654 64.081C233.844 64.081 233.196 63.757 232.71 63.109C232.278 62.407 232.062 61.57 232.062 60.598C232.062 59.572 232.413 58.222 233.115 56.548C233.817 54.874 234.708 52.849 235.788 50.473L230.928 55.576C229.74 56.764 229.011 57.358 228.741 57.358C228.417 57.358 228.255 57.196 228.255 56.872C228.255 56.494 228.471 56.089 228.903 55.657C230.901 53.659 232.629 51.742 234.087 49.906C235.491 48.07 238.38 44.56 242.754 39.376C243.24 38.728 243.753 38.404 244.293 38.404ZM290.57 39.457C296.618 29.629 300.83 24.715 303.206 24.715C303.584 24.715 304.097 24.85 304.745 25.12C305.447 25.336 305.798 25.687 305.798 26.173C305.798 26.443 305.663 26.794 305.393 27.226C301.073 32.518 297.86 36.487 295.754 39.133C289.382 47.179 285.872 52.957 285.224 56.467C285.062 57.223 284.981 57.979 284.981 58.735C284.981 61.165 285.98 62.38 287.978 62.38C291.974 62.38 297.185 58.681 303.611 51.283C304.151 50.743 304.61 50.446 304.988 50.392C305.366 50.284 305.555 50.365 305.555 50.635C305.555 50.905 305.393 51.229 305.069 51.607C298.805 59.113 293.243 63.298 288.383 64.162C288.113 64.216 287.735 64.243 287.249 64.243C285.575 64.243 284.306 63.676 283.442 62.542C282.632 61.354 282.227 60.085 282.227 58.735C282.227 57.223 282.524 55.549 283.118 53.713L276.557 60.274C273.587 63.028 271.238 64.405 269.51 64.405C267.836 64.405 266.432 63.946 265.298 63.028C263.948 62.002 263.273 60.571 263.273 58.735C263.273 54.793 266.027 50.095 271.535 44.641C277.043 39.133 282.092 36.379 286.682 36.379C288.194 36.379 289.247 36.784 289.841 37.594C290.057 37.864 290.3 38.485 290.57 39.457ZM266.675 59.707C266.675 61.651 267.35 62.623 268.7 62.623C271.022 62.623 274.883 59.437 280.283 53.065C281.255 51.931 284.495 47.692 290.003 40.348C289.625 39.7 288.977 39.376 288.059 39.376C284.711 39.376 280.31 41.941 274.856 47.071C269.402 52.147 266.675 56.359 266.675 59.707ZM328.705 39.781L329.839 39.538C330.433 39.538 331 39.781 331.54 40.267C332.08 40.753 332.35 41.131 332.35 41.401C332.35 41.671 330.676 44.29 327.328 49.258C323.98 54.172 322.306 57.601 322.306 59.545C322.306 59.707 322.333 59.869 322.387 60.031C322.657 61.273 323.251 61.894 324.169 61.894C326.977 61.894 332.107 57.25 339.559 47.962C339.721 47.746 339.91 47.638 340.126 47.638C340.342 47.638 340.45 47.854 340.45 48.286C340.45 48.664 340.207 49.177 339.721 49.825C332.809 59.059 327.544 63.676 323.926 63.676C323.44 63.676 322.981 63.595 322.549 63.433C320.173 62.515 318.985 60.733 318.985 58.087C318.985 57.169 319.093 56.251 319.309 55.333L314.287 60.193C311.101 63.001 308.779 64.405 307.321 64.405C305.917 64.405 304.567 63.946 303.271 63.028C301.813 61.948 301.084 60.517 301.084 58.735C301.084 54.793 303.838 50.095 309.346 44.641C314.854 39.133 319.903 36.379 324.493 36.379C326.275 36.379 327.463 37 328.057 38.242C328.219 38.674 328.354 39.052 328.462 39.376C328.57 39.646 328.651 39.781 328.705 39.781ZM304.486 59.707C304.486 61.651 305.161 62.623 306.511 62.623C309.643 62.623 313.909 59.194 319.309 52.336L327.895 40.51C327.463 39.754 326.761 39.376 325.789 39.376C322.495 39.376 318.121 41.941 312.667 47.071C307.213 52.147 304.486 56.359 304.486 59.707Z" fill="white"/>
<path d="M17.1429 10C7.69143 10 0 16.7283 0 25V65C0 73.2717 7.69143 80 17.1429 80H62.8571C63.501 80 64.1352 79.964 64.7619 79.9023V10.0977C64.1352 10.036 63.501 10 62.8571 10H17.1429ZM68.5714 10.8757V26.6667H80V25C80 18.4833 75.219 12.9407 68.5714 10.8757ZM34.2857 23.3333C47.939 23.3333 59.0476 33.0533 59.0476 45C59.0476 56.9467 47.939 66.6667 34.2857 66.6667C20.6324 66.6667 9.52381 56.9467 9.52381 45C9.52381 33.0533 20.6324 23.3333 34.2857 23.3333ZM34.2857 26.6667C22.7333 26.6667 13.3333 34.8917 13.3333 45C13.3333 49.69 15.3741 53.962 18.6979 57.207C22.6465 53.7087 28.2895 51.6667 34.2857 51.6667C40.2667 51.6667 45.9305 53.7039 49.881 57.2005C53.199 53.9555 55.2381 49.6867 55.2381 45C55.2381 34.8917 45.8381 26.6667 34.2857 26.6667ZM68.5714 30V43.3333H80V30H68.5714ZM34.2857 34.1667C39.0114 34.1667 42.8571 37.5317 42.8571 41.6667C42.8571 45.8017 39.0114 49.1667 34.2857 49.1667C29.56 49.1667 25.7143 45.8017 25.7143 41.6667C25.7143 37.5317 29.56 34.1667 34.2857 34.1667ZM68.5714 46.6667V60H80V46.6667H68.5714ZM68.5714 63.3333V79.1243C75.219 77.0593 80 71.5167 80 65V63.3333H68.5714Z" fill="white"/>
</svg>
